<svg width="64" height="64" viewBox="0 0 64 64" xmlns="http://www.w3.org/2000/svg">
  <!-- Cola -->
  <path d="M16 44 Q 4 44 8 32" stroke="#E67E22" stroke-width="6" fill="none" stroke-linecap="round" />
  <path d="M16 44 Q 4 44 8 32" stroke="#D35400" stroke-width="6" fill="none" stroke-dasharray="4,4" stroke-linecap="round" />
  
  <!-- Patas -->
  <rect x="18" y="48" width="6" height="10" fill="#E67E22" />
  <rect x="34" y="48" width="6" height="10" fill="#E67E22" />
  
  <!-- Cuerpo -->
  <rect x="16" y="32" width="28" height="20" rx="8" fill="#E67E22" />
  <!-- Rayas del cuerpo -->
  <rect x="22" y="32" width="3" height="12" fill="#D35400" />
  <rect x="29" y="32" width="3" height="12" fill="#D35400" />
  <rect x="36" y="32" width="3" height="12" fill="#D35400" />
  
  <!-- Cabeza -->
  <circle cx="48" cy="30" r="12" fill="#E67E22" />
  <!-- Orejas -->
  <path d="M40 22 L44 10 L50 20 Z" fill="#E67E22" />
  <path d="M52 20 L58 10 L62 22 Z" fill="#E67E22" />
  <!-- Ojo -->
  <circle cx="54" cy="28" r="2" fill="#2C3E50" />
  <!-- Nariz -->
  <path d="M58 32 L61 31 L61 33 Z" fill="#F1948A" />
</svg>
